HIERARCHY
ROOT Hips
{
	OFFSET 0.000000 103.266502 0.000000
	CHANNELS 6 Xposition Yposition Zposition Xrotation Yrotation Zrotation 
	JOINT Spine
	{
		OFFSET -0.002400 12.777504 0.315300
		CHANNELS 3 Xrotation Yrotation Zrotation
		JOINT Spine1
		{
			OFFSET -0.002067 5.816869 0.032633
			CHANNELS 3 Xrotation Yrotation Zrotation
			JOINT Spine1_split
			{
				OFFSET -0.002067 5.816869 0.032633
				CHANNELS 3 Xrotation Yrotation Zrotation
				JOINT Spine2
				{
					OFFSET -0.002067 5.816869 0.032633
					CHANNELS 3 Xrotation Yrotation Zrotation
					JOINT Neck
					{
						OFFSET -0.003700 21.199493 -0.826900
						CHANNELS 3 Xrotation Yrotation Zrotation
						JOINT Head
						{
							OFFSET 0.000000 20.442200 4.834800
							CHANNELS 3 Xrotation Yrotation Zrotation
							JOINT HeadTop_End
							{
								OFFSET 0.000000 34.668396 4.968400
								CHANNELS 3 Xrotation Yrotation Zrotation
								End Site
								{
									OFFSET 0.000000 0.000000 0.000000
								}
							}
						}
					}
					JOINT LeftShoulder
					{
						OFFSET 3.288150 8.794197 -1.372250
						CHANNELS 3 Xrotation Yrotation Zrotation
						JOINT LeftShoulder_split
						{
							OFFSET 3.288150 8.794197 -1.372250
							CHANNELS 3 Xrotation Yrotation Zrotation
							JOINT LeftArm
							{
								OFFSET 11.953299 -2.279007 -0.146200
								CHANNELS 3 Xrotation Yrotation Zrotation
								JOINT LeftForeArm
								{
									OFFSET 18.448900 0.000000 0.000000
									CHANNELS 3 Xrotation Yrotation Zrotation
									JOINT LeftHand
									{
										OFFSET 29.527798 0.000000 0.000000
										CHANNELS 3 Xrotation Yrotation Zrotation
										JOINT LeftHandThumb1
										{
											OFFSET 10.739754 -2.369614 9.225399
											CHANNELS 3 Xrotation Yrotation Zrotation
											JOINT LeftHandThumb2
											{
												OFFSET 4.926170 -2.844131 2.844125
												CHANNELS 3 Xrotation Yrotation Zrotation
												JOINT LeftHandThumb3
												{
													OFFSET 4.614891 -2.664413 2.664409
													CHANNELS 3 Xrotation Yrotation Zrotation
													JOINT LeftHandThumb4
													{
														OFFSET 4.432465 -2.559082 2.559083
														CHANNELS 3 Xrotation Yrotation Zrotation
														End Site
														{
															OFFSET 0.000000 0.000000 0.000000
														}
													}
												}
											}
										}
										JOINT LeftHandIndex1
										{
											OFFSET 26.467674 0.187653 6.405298
											CHANNELS 3 Xrotation Yrotation Zrotation
											JOINT LeftHandIndex2
											{
												OFFSET 8.792900 0.000000 0.000000
												CHANNELS 3 Xrotation Yrotation Zrotation
												JOINT LeftHandIndex3
												{
													OFFSET 10.075203 0.000000 0.000000
													CHANNELS 3 Xrotation Yrotation Zrotation
													End Site
													{
														OFFSET 0.000000 0.000000 0.000000
													}
												}
											}
										}
										JOINT LeftHandMiddle1
										{
											OFFSET 25.764404 0.000000 0.000000
											CHANNELS 3 Xrotation Yrotation Zrotation
											JOINT LeftHandMiddle2
											{
												OFFSET 9.393974 0.000000 0.000000
												CHANNELS 3 Xrotation Yrotation Zrotation
												JOINT LeftHandMiddle3
												{
													OFFSET 10.771950 0.000000 0.000000
													CHANNELS 3 Xrotation Yrotation Zrotation
													End Site
													{
														OFFSET 0.000000 0.000000 0.000000
													}
												}
											}
										}
										JOINT LeftHandRing1
										{
											OFFSET 24.660927 0.144547 -6.225808
											CHANNELS 3 Xrotation Yrotation Zrotation
											JOINT LeftHandRing2
											{
												OFFSET 9.393799 0.000000 0.000000
												CHANNELS 3 Xrotation Yrotation Zrotation
												JOINT LeftHandRing3
												{
													OFFSET 9.928497 0.000000 0.000000
													CHANNELS 3 Xrotation Yrotation Zrotation
													End Site
													{
														OFFSET 0.000000 0.000000 0.000000
													}
												}
											}
										}
										JOINT LeftHandPinky1
										{
											OFFSET 23.655350 0.125290 -12.815412
											CHANNELS 3 Xrotation Yrotation Zrotation
											JOINT LeftHandPinky2
											{
												OFFSET 8.425102 0.000000 0.000000
												CHANNELS 3 Xrotation Yrotation Zrotation
												JOINT LeftHandPinky3
												{
													OFFSET 8.147003 0.000000 0.000000
													CHANNELS 3 Xrotation Yrotation Zrotation
													End Site
													{
														OFFSET 0.000000 0.000000 0.000000
													}
												}
											}
										}
									}
								}
							}
						}
					}
					JOINT RightShoulder
					{
						OFFSET -3.249400 8.794197 -1.372250
						CHANNELS 3 Xrotation Yrotation Zrotation
						JOINT RightShoulder_split
						{
							OFFSET -3.249400 8.794197 -1.372250
							CHANNELS 3 Xrotation Yrotation Zrotation
							JOINT RightArm
							{
								OFFSET -11.953299 -2.279007 -0.146200
								CHANNELS 3 Xrotation Yrotation Zrotation
								JOINT RightForeArm
								{
									OFFSET -18.448900 0.000000 0.000000
									CHANNELS 3 Xrotation Yrotation Zrotation
									JOINT RightHand
									{
										OFFSET -29.527802 0.000000 0.000000
										CHANNELS 3 Xrotation Yrotation Zrotation
										JOINT RightHandThumb1
										{
											OFFSET -10.739754 -2.369614 9.225399
											CHANNELS 3 Xrotation Yrotation Zrotation
											JOINT RightHandThumb2
											{
												OFFSET -4.926170 -2.844131 2.844125
												CHANNELS 3 Xrotation Yrotation Zrotation
												JOINT RightHandThumb3
												{
													OFFSET -4.614891 -2.664413 2.664409
													CHANNELS 3 Xrotation Yrotation Zrotation
													JOINT RightHandThumb4
													{
														OFFSET -4.432465 -2.559082 2.559083
														CHANNELS 3 Xrotation Yrotation Zrotation
														End Site
														{
															OFFSET 0.000000 0.000000 0.000000
														}
													}
												}
											}
										}
										JOINT RightHandIndex1
										{
											OFFSET -26.467674 0.187653 6.405298
											CHANNELS 3 Xrotation Yrotation Zrotation
											JOINT RightHandIndex2
											{
												OFFSET -8.792900 0.000000 0.000000
												CHANNELS 3 Xrotation Yrotation Zrotation
												JOINT RightHandIndex3
												{
													OFFSET -10.075203 0.000000 0.000000
													CHANNELS 3 Xrotation Yrotation Zrotation
													End Site
													{
														OFFSET 0.000000 0.000000 0.000000
													}
												}
											}
										}
										JOINT RightHandMiddle1
										{
											OFFSET -25.764404 0.000000 0.000000
											CHANNELS 3 Xrotation Yrotation Zrotation
											JOINT RightHandMiddle2
											{
												OFFSET -9.393974 0.000000 0.000000
												CHANNELS 3 Xrotation Yrotation Zrotation
												JOINT RightHandMiddle3
												{
													OFFSET -10.771950 0.000000 0.000000
													CHANNELS 3 Xrotation Yrotation Zrotation
													End Site
													{
														OFFSET 0.000000 0.000000 0.000000
													}
												}
											}
										}
										JOINT RightHandRing1
										{
											OFFSET -24.660927 0.144547 -6.225808
											CHANNELS 3 Xrotation Yrotation Zrotation
											JOINT RightHandRing2
											{
												OFFSET -9.393799 0.000000 0.000000
												CHANNELS 3 Xrotation Yrotation Zrotation
												JOINT RightHandRing3
												{
													OFFSET -9.928497 0.000000 0.000000
													CHANNELS 3 Xrotation Yrotation Zrotation
													End Site
													{
														OFFSET 0.000000 0.000000 0.000000
													}
												}
											}
										}
										JOINT RightHandPinky1
										{
											OFFSET -23.655350 0.125290 -12.815412
											CHANNELS 3 Xrotation Yrotation Zrotation
											JOINT RightHandPinky2
											{
												OFFSET -8.425102 0.000000 0.000000
												CHANNELS 3 Xrotation Yrotation Zrotation
												JOINT RightHandPinky3
												{
													OFFSET -8.147003 0.000000 0.000000
													CHANNELS 3 Xrotation Yrotation Zrotation
													End Site
													{
														OFFSET 0.000000 0.000000 0.000000
													}
												}
											}
										}
									}
								}
							}
						}
					}
				}
			}
		}
	}
	JOINT LeftUpLeg
	{
		OFFSET 11.394100 -6.187798 -0.413800
		CHANNELS 3 Xrotation Yrotation Zrotation
		JOINT LeftLeg
		{
			OFFSET 0.430247 -32.302673 3.732800
			CHANNELS 3 Xrotation Yrotation Zrotation
			JOINT LeftFoot
			{
				OFFSET -0.430247 -48.264931 -6.423300
				CHANNELS 3 Xrotation Yrotation Zrotation
				JOINT LeftToeBase
				{
					OFFSET 4.230900 -16.068199 23.438400
					CHANNELS 3 Xrotation Yrotation Zrotation
					JOINT LeftToe_End
					{
						OFFSET 4.510700 0.695400 19.974600
						CHANNELS 3 Xrotation Yrotation Zrotation
						End Site
						{
							OFFSET 0.000000 0.000000 0.000000
						}
					}
				}
			}
		}
	}
	JOINT RightUpLeg
	{
		OFFSET -11.333700 -6.187798 -0.413800
		CHANNELS 3 Xrotation Yrotation Zrotation
		JOINT RightLeg
		{
			OFFSET -0.430392 -32.302628 3.733000
			CHANNELS 3 Xrotation Yrotation Zrotation
			JOINT RightFoot
			{
				OFFSET 0.430392 -48.264973 -6.423500
				CHANNELS 3 Xrotation Yrotation Zrotation
				JOINT RightToeBase
				{
					OFFSET -4.230900 -16.068199 23.438400
					CHANNELS 3 Xrotation Yrotation Zrotation
					JOINT RightToe_End
					{
						OFFSET -4.510700 0.695400 19.974600
						CHANNELS 3 Xrotation Yrotation Zrotation
						End Site
						{
							OFFSET 0.000000 0.000000 0.000000
						}
					}
				}
			}
		}
	}
}
MOTION
Frames: 5
Frame Time: 0.016667
-6.789742 134.133636 -13.428493 9.957429 -11.418779 -1.505015 33.186516 6.493221 2.375691 7.016416 1.371149 0.932971 0.000000 0.000000 0.000000 7.016147 1.356910 0.957110 7.978315 3.451512 1.914782 -5.460711 28.728127 -21.647093 -0.000000 0.000001 0.000000 0.333778 -3.623990 3.511464 0.000000 0.000000 0.000000 -39.710952 20.403431 24.454222 0.000009 -1.659874 0.000012 5.337922 -17.498065 -30.910458 -1.512207 3.683030 6.110830 3.939049 7.948702 0.746785 -0.579475 1.575006 2.538705 0.000002 -0.000000 0.000001 0.033125 0.675969 -5.610574 0.032963 0.674437 -5.597728 -0.000006 -0.000000 0.000000 0.069858 0.980269 -8.151093 0.078705 1.040169 -8.653168 -0.000001 0.000000 -0.000001 0.141439 1.391199 -11.609546 0.158279 1.470737 -12.283632 -0.000002 0.000001 -0.000002 1.260522 5.698231 -14.444240 0.229455 -2.281942 -15.368581 0.000000 -0.000000 -0.000001 -3.152586 -6.176005 -32.353537 0.000000 0.000000 0.000000 -43.155317 11.870940 -9.722797 -0.000001 13.107177 0.000004 11.026648 -9.558991 61.789928 -1.849251 -3.581787 -6.586141 4.637192 -8.634123 -0.225388 -1.273762 0.137316 -2.094860 0.000000 -0.000000 -0.000001 0.097313 -1.161571 9.577307 0.097309 -1.161582 9.577299 -0.000000 -0.000001 -0.000000 0.734452 -4.504861 10.622743 0.142206 -1.401929 11.584705 -0.000003 -0.000002 -0.000002 1.799549 -8.681481 12.425408 0.204359 -1.676603 13.897317 -0.000001 0.000002 0.000001 3.081994 -12.378813 14.479202 0.252513 -1.860363 15.457613 -0.000002 -0.000002 0.000000 -159.739710 -31.208251 20.948614 123.507060 -15.050277 -3.703043 46.850187 -24.767154 -0.406683 -0.018053 -0.000005 0.000003 -0.000001 0.000000 0.000001 -140.340990 50.626653 -13.397642 134.947080 -1.532202 -0.182752 34.919472 27.361796 42.572535 -0.009362 -0.000009 0.000003 0.000001 -0.000003 -0.000000 
-6.784396 133.352997 -13.103874 10.352629 -10.988653 -0.785637 32.808759 6.149874 1.704537 6.928088 1.411406 0.809338 0.000000 0.000000 0.000000 6.927397 1.400735 0.834281 8.137142 3.359825 2.019693 -4.939795 28.238411 -21.457505 -0.000003 -0.000001 -0.000000 0.260221 -3.373976 3.577370 0.000000 0.000000 0.000000 -40.196049 20.677961 26.508051 -0.000007 -2.492644 0.000003 7.106739 -15.300559 -31.430604 -1.511011 3.682990 6.108667 3.939048 7.948701 0.746785 -0.579478 1.575006 2.538707 -0.000003 -0.000000 -0.000001 0.033128 0.675969 -5.610574 0.032964 0.674437 -5.597730 -0.000001 -0.000000 -0.000000 0.069858 0.980270 -8.151094 0.078697 1.040168 -8.653168 0.000002 0.000000 0.000001 0.141439 1.391199 -11.609548 0.158280 1.470737 -12.283633 -0.000000 -0.000000 -0.000001 1.260523 5.698232 -14.444243 0.229456 -2.281942 -15.368581 -0.000000 -0.000001 -0.000000 -2.438239 -4.287077 -32.305559 0.000000 0.000000 0.000000 -40.704048 7.760218 -13.687623 0.000000 15.033125 -0.000006 9.217876 -10.057909 64.473489 -1.849251 -3.581787 -6.586136 4.637195 -8.634122 -0.225385 -1.273760 0.137316 -2.094861 0.000003 -0.000001 -0.000002 0.097311 -1.161570 9.577307 0.097310 -1.161584 9.577302 0.000001 0.000002 0.000000 0.734457 -4.504865 10.622741 0.142212 -1.401927 11.584708 -0.000000 -0.000002 -0.000004 1.799551 -8.681479 12.425407 0.204364 -1.676603 13.897318 -0.000002 0.000002 0.000004 3.081993 -12.378812 14.479204 0.252512 -1.860363 15.457615 0.000000 -0.000000 0.000001 -157.797983 -30.496091 24.259130 123.155810 -15.585923 -5.346294 47.177947 -26.066252 2.452099 -0.018052 0.000004 -0.000005 0.000001 -0.000001 -0.000000 -134.220348 50.604995 -18.087102 133.559022 -0.754961 0.687813 32.547624 26.091925 41.691557 -0.008796 -0.000016 0.000000 0.000003 -0.000003 0.000002 
-6.723805 132.135803 -12.684643 10.317154 -11.081148 -0.508627 32.067998 6.120010 1.159365 6.762703 1.484585 0.721722 0.000000 0.000000 0.000000 6.761559 1.477280 0.747491 8.034097 3.323868 2.004733 -4.484727 27.881879 -21.407102 -0.000000 0.000002 0.000000 0.150301 -2.880986 3.833597 0.000000 0.000000 0.000000 -39.803354 20.644049 27.958485 0.000004 -3.001043 -0.000006 7.784233 -14.020439 -32.303410 -1.509859 3.682950 6.106608 3.939051 7.948703 0.746785 -0.579473 1.575007 2.538704 0.000000 0.000000 0.000000 0.033128 0.675968 -5.610573 0.032966 0.674437 -5.597729 -0.000000 0.000001 0.000000 0.069861 0.980270 -8.151093 0.078702 1.040169 -8.653168 0.000001 -0.000000 0.000000 0.141441 1.391199 -11.609546 0.158277 1.470738 -12.283630 -0.000000 -0.000000 -0.000000 1.260523 5.698232 -14.444242 0.229458 -2.281943 -15.368580 -0.000001 0.000001 -0.000000 -1.787103 -2.322990 -32.141969 0.000000 0.000000 0.000000 -38.691505 3.637151 -16.996656 -0.000003 17.122608 0.000003 6.431857 -10.848091 65.605224 -1.849254 -3.581787 -6.586135 4.637194 -8.634123 -0.225390 -1.273765 0.137315 -2.094861 0.000005 0.000000 -0.000000 0.097314 -1.161570 9.577313 0.097308 -1.161582 9.577305 -0.000001 -0.000003 -0.000004 0.734454 -4.504862 10.622744 0.142206 -1.401925 11.584711 -0.000003 0.000001 0.000004 1.799550 -8.681480 12.425408 0.204363 -1.676604 13.897322 0.000002 0.000001 0.000003 3.081990 -12.378815 14.479207 0.252509 -1.860360 15.457616 -0.000001 -0.000001 -0.000001 -155.068927 -29.237591 26.391675 122.549768 -15.832138 -6.353436 47.471536 -24.950790 4.932207 -0.018101 0.000003 -0.000003 0.000001 0.000001 -0.000000 -128.286799 48.812398 -21.530522 132.045192 -0.081030 1.208232 28.987357 24.582860 41.436698 -0.008129 -0.000002 0.000004 0.000001 -0.000001 0.000000 
-6.635613 130.547852 -12.271704 10.012546 -11.379595 -0.477425 31.049118 6.300758 0.743115 6.538960 1.568813 0.665327 0.000000 0.000000 0.000000 6.537249 1.564635 0.691667 7.825996 3.324092 1.952251 -4.157737 27.663963 -21.379889 0.000001 -0.000001 0.000001 0.039197 -2.385780 4.168917 0.000000 0.000000 0.000000 -38.968323 20.585628 29.044399 -0.000003 -3.374195 -0.000009 8.050769 -13.187926 -33.345906 -1.508788 3.682912 6.104660 3.939051 7.948704 0.746785 -0.579470 1.575005 2.538706 -0.000000 -0.000001 0.000000 0.033126 0.675968 -5.610574 0.032968 0.674437 -5.597728 -0.000000 -0.000001 -0.000000 0.069857 0.980270 -8.151095 0.078700 1.040169 -8.653170 -0.000001 -0.000001 0.000001 0.141439 1.391199 -11.609549 0.158278 1.470738 -12.283632 0.000001 -0.000001 0.000000 1.260525 5.698233 -14.444243 0.229456 -2.281941 -15.368581 0.000000 0.000000 -0.000001 -1.195189 -0.396600 -31.763337 0.000000 0.000000 0.000000 -37.135144 -0.211836 -19.628941 0.000007 19.145503 -0.000018 4.004377 -11.617238 66.067211 -1.849255 -3.581785 -6.586138 4.637196 -8.634122 -0.225388 -1.273763 0.137314 -2.094861 0.000003 -0.000001 -0.000001 0.097311 -1.161570 9.577309 0.097312 -1.161582 9.577304 -0.000000 -0.000000 -0.000000 0.734454 -4.504862 10.622746 0.142207 -1.401928 11.584700 0.000001 -0.000002 -0.000001 1.799548 -8.681478 12.425408 0.204358 -1.676604 13.897318 0.000003 0.000001 -0.000000 3.081986 -12.378813 14.479207 0.252515 -1.860366 15.457613 -0.000002 -0.000000 -0.000002 -151.904514 -27.642827 27.598124 121.877896 -15.710540 -6.805275 47.005123 -23.041630 6.466736 -0.017429 -0.000006 0.000003 0.000001 0.000000 -0.000000 -122.855651 45.948305 -23.548114 130.508905 0.370298 1.411824 24.817007 22.698023 41.446681 -0.007151 0.000010 -0.000017 0.000000 0.000001 0.000000 
-6.538167 128.581085 -11.995155 9.334440 -11.643575 -0.705479 29.875705 6.715687 0.557737 6.286045 1.654824 0.662580 0.000000 0.000000 0.000000 6.283574 1.652842 0.689202 7.656652 3.360289 1.905505 -4.140579 27.693036 -21.293157 0.000003 -0.000001 0.000001 -0.029565 -2.134307 4.558662 0.000000 0.000000 0.000000 -37.997999 20.763763 30.040511 0.000006 -3.667782 0.000009 8.120514 -12.981493 -34.557233 -1.507749 3.682877 6.102818 3.939048 7.948701 0.746785 -0.579475 1.575006 2.538706 0.000000 0.000000 -0.000002 0.033128 0.675969 -5.610574 0.032964 0.674437 -5.597728 0.000002 0.000001 0.000000 0.069860 0.980270 -8.151093 0.078704 1.040169 -8.653167 0.000002 0.000001 -0.000001 0.141441 1.391199 -11.609549 0.158280 1.470736 -12.283631 0.000001 -0.000001 -0.000000 1.260524 5.698233 -14.444243 0.229457 -2.281942 -15.368583 -0.000003 0.000000 0.000001 -0.769567 1.209648 -31.233765 0.000000 0.000000 0.000000 -36.055869 -3.151191 -21.148530 -0.000008 20.611962 0.000012 3.113605 -11.902709 66.283168 -1.849251 -3.581786 -6.586142 4.637196 -8.634121 -0.225387 -1.273758 0.137316 -2.094859 -0.000001 0.000001 -0.000001 0.097311 -1.161572 9.577309 0.097312 -1.161580 9.577305 0.000001 -0.000003 -0.000000 0.734451 -4.504863 10.622746 0.142206 -1.401926 11.584703 -0.000000 -0.000001 -0.000002 1.799551 -8.681481 12.425404 0.204362 -1.676604 13.897318 0.000000 0.000000 -0.000000 3.081992 -12.378815 14.479204 0.252510 -1.860359 15.457611 -0.000002 0.000001 0.000001 -148.964568 -25.702186 27.648780 121.466541 -15.159842 -6.427654 45.408392 -21.393800 6.790015 -0.015280 0.000006 0.000001 -0.000002 0.000003 0.000001 -118.316143 42.508236 -23.889242 129.308458 0.349905 1.138687 20.326419 20.094886 41.612620 -0.005365 -0.000001 0.000003 -0.000000 0.000000 -0.000000 
